<svg xmlns="http://www.w3.org/2000/svg" width="19" height="19" viewBox="0 0 19 19" fill="none">
  <path d="M6.4112 6.22834H12.5082M6.4112 9.27683H10.2218M9.45969 16.1359H7.47817C5.77086 16.1359 4.9172 16.1359 4.26509 15.8037C3.69148 15.5114 3.22512 15.045 2.93285 14.4714C2.60059 13.8193 2.60059 12.9657 2.60059 11.2583V7.29531C2.60059 5.58799 2.60059 4.73434 2.93285 4.08223C3.22512 3.50862 3.69148 3.04226 4.26509 2.74999C4.9172 2.41772 5.77086 2.41772 7.47817 2.41772H11.4412C13.1485 2.41772 14.0022 2.41772 14.6543 2.74999C15.2279 3.04226 15.6943 3.50862 15.9865 4.08223C16.3188 4.73434 16.3188 5.58799 16.3188 7.29531V8.51471M12.2948 14.5812L13.0569 15.5974C13.3879 16.0386 13.5533 16.2593 13.7562 16.3381C13.9339 16.4072 14.131 16.4072 14.3087 16.3381C14.5115 16.2593 14.677 16.0386 15.0079 15.5974L15.7701 14.5812C15.9668 14.3188 16.0652 14.1877 16.1032 14.0436C16.1366 13.9164 16.1366 13.7827 16.1032 13.6556C16.0652 13.5115 15.9668 13.3803 15.7701 13.1179L15.0079 12.1018C14.677 11.6605 14.5115 11.4399 14.3087 11.361C14.131 11.2919 13.9339 11.2919 13.7562 11.361C13.5533 11.4399 13.3879 11.6605 13.0569 12.1018L12.2948 13.1179C12.098 13.3803 11.9996 13.5115 11.9617 13.6556C11.9282 13.7827 11.9282 13.9164 11.9617 14.0436C11.9996 14.1877 12.098 14.3188 12.2948 14.5812Z" stroke="#4A7BE5" stroke-width="1.82909" stroke-linecap="round" stroke-linejoin="round"/>
</svg>