<svg xmlns="http://www.w3.org/2000/svg" width="19" height="19" viewBox="0 0 19 19" fill="none">
  <path d="M9.45969 16.3184C12.5219 13.8229 12.5761 18.8772 16.3188 14.7942M2.65101 14.2722C2.6581 13.9849 2.66164 13.8413 2.69637 13.7063C2.72716 13.5867 2.77593 13.4725 2.84099 13.3676C2.91436 13.2494 3.01552 13.1477 3.21783 12.9445L13.1656 2.95306C13.5646 2.55227 14.1879 2.48511 14.6625 2.79175C15.2251 3.15527 15.7058 3.63297 16.0738 4.19417L16.0995 4.2335C16.1182 4.26193 16.1275 4.27614 16.1354 4.28895C16.4275 4.75952 16.3657 5.36896 15.9851 5.77069C15.9748 5.78162 15.9628 5.79365 15.9388 5.81773L6.05156 15.7484C5.8417 15.9592 5.73676 16.0646 5.61429 16.1399C5.50571 16.2067 5.38732 16.2558 5.26349 16.2855C5.12381 16.319 4.97542 16.3188 4.67863 16.3184L2.60059 16.315L2.65101 14.2722Z" stroke="#4A7BE5" stroke-width="1.82909" stroke-linecap="round" stroke-linejoin="round"/>
</svg>